<svg xmlns="http://www.w3.org/2000/svg" viewBox="0 0 540 650" role="img"><style>text{fill:#eee2c7;font-family:serif} .small{font-size:17px;fill:#c6b997}.label{font-size:23px}.road{fill:none;stroke:#c2aa74;stroke-width:3;stroke-dasharray:8 9}.node{fill:#243d3b;stroke:#cfb77e;stroke-width:2}</style><rect x="12" y="12" width="516" height="626" rx="9" fill="#1c2c2f" stroke="#b29b65"/><text x="40" y="57" font-size="26">リムグレイブ ／ 旅の略図</text><text x="465" y="100" class="small">北 ↑</text><path class="road" d="M170 447 Q110 320 177 212 M207 454 Q300 462 344 371"/><path d="M344 268 Q430 235 459 318 Q497 422 441 523 Q351 551 332 458 Q299 341 344 268" fill="#365660" stroke="#7a9a9b"/><text x="351" y="355" class="label">アギール湖</text><text x="337" y="385" class="small">水場はまだ未確認</text><rect class="node" x="66" y="137" width="229" height="84" rx="8"/><text x="92" y="174" class="label">関門前の廃墟</text><text x="86" y="203" class="small">祝福と敵を調べたい</text><rect class="node" x="47" y="438" width="225" height="92" rx="8"/><text x="77" y="475" class="label">● エレの教会</text><text x="65" y="505" class="small">現在地・三十三人の拠点</text><text x="47" y="573" class="small">点線：記憶と伝聞から考えた方向</text><text x="47" y="602" class="small">距離・安全・道の開通を示す図ではない</text></svg>